<svg width="65" height="65" viewBox="0 0 65 65" fill="none" xmlns="http://www.w3.org/2000/svg">
<path d="M57.5517 44.3078C55.1683 44.3078 54.1121 43.3869 52.6225 42.0869C50.9704 40.6786 48.9121 38.8911 45.0392 38.8911C41.1392 38.8911 39.1079 40.6786 37.4558 42.0869C35.9662 43.3869 34.8829 44.3078 32.4996 44.3078C30.1433 44.3078 29.06 43.3869 27.5704 42.0869C25.9183 40.6786 23.86 38.8911 19.9871 38.8911C16.0871 38.8911 14.0288 40.6786 12.3767 42.0869C10.8871 43.3869 9.83084 44.3078 7.44751 44.3078C6.33709 44.3078 5.41626 45.2286 5.41626 46.339C5.41626 47.4765 6.33709 48.3703 7.44751 48.3703C11.3475 48.3703 13.3787 46.6099 15.0308 45.1744C16.5204 43.8744 17.6038 42.9536 19.9871 42.9536C22.3704 42.9536 23.4267 43.8744 24.9163 45.1744C26.5684 46.6099 28.6267 48.3703 32.4996 48.3703C36.3996 48.3703 38.4579 46.6099 40.11 45.1744C41.5996 43.8744 42.6559 42.9536 45.0392 42.9536C47.3954 42.9536 48.4788 43.8744 49.9684 45.1744C51.6205 46.6099 53.6788 48.3703 57.5517 48.3703C58.6621 48.3703 59.5829 47.4765 59.5829 46.339C59.5829 45.2286 58.6621 44.3078 57.5517 44.3078Z" fill="white"/>
<path d="M57.5517 33.1504C55.1683 33.1504 54.1121 32.2025 52.6225 30.9296C50.9704 29.4942 48.9121 27.7337 45.0392 27.7337C41.1392 27.7337 39.1079 29.4942 37.4558 30.9296C35.9662 32.2025 34.8829 33.1504 32.4996 33.1504C30.1433 33.1504 29.06 32.2025 27.5704 30.9296C25.9183 29.4942 23.86 27.7337 19.9871 27.7337C16.0871 27.7337 14.0288 29.4942 12.3767 30.9296C10.8871 32.2025 9.83084 33.1504 7.44751 33.1504C6.33709 33.1504 5.41626 34.0442 5.41626 35.1817C5.41626 36.2921 6.33709 37.2129 7.44751 37.2129C11.3475 37.2129 13.3787 35.4254 15.0308 33.99C16.5204 32.7171 17.6038 31.7962 19.9871 31.7962C22.3704 31.7962 23.4267 32.7171 24.9163 33.99C26.5684 35.4254 28.6267 37.2129 32.4996 37.2129C36.3996 37.2129 38.4579 35.4254 40.11 33.99C41.5996 32.7171 42.6559 31.7962 45.0392 31.7962C47.3954 31.7962 48.4788 32.7171 49.9684 33.99C51.6205 35.4254 53.6788 37.2129 57.5517 37.2129C58.6621 37.2129 59.5829 36.2921 59.5829 35.1817C59.5829 34.0442 58.6621 33.1504 57.5517 33.1504Z" fill="white"/>
<path d="M7.44751 26.1087C11.3475 26.1087 13.3787 24.3212 15.0308 22.9128C16.5204 21.6128 17.6038 20.692 19.9871 20.692C22.3704 20.692 23.4267 21.6128 24.9163 22.9128C26.5684 24.3212 28.6267 26.1087 32.4996 26.1087C36.3996 26.1087 38.4579 24.3212 40.11 22.9128C41.5996 21.6128 42.6559 20.692 45.0392 20.692C47.3954 20.692 48.4788 21.6128 49.9684 22.9128C51.6205 24.3212 53.6788 26.1087 57.5517 26.1087C58.6621 26.1087 59.5829 25.1878 59.5829 24.0774C59.5829 22.9399 58.6621 22.0462 57.5517 22.0462C55.1683 22.0462 54.1121 21.1253 52.6225 19.8253C50.9704 18.3899 48.9121 16.6295 45.0392 16.6295C41.1392 16.6295 39.1079 18.3899 37.4558 19.8253C35.9662 21.1253 34.8829 22.0462 32.4996 22.0462C30.1433 22.0462 29.06 21.1253 27.5704 19.8253C25.9183 18.3899 23.86 16.6295 19.9871 16.6295C16.0871 16.6295 14.0288 18.3899 12.3767 19.8253C10.8871 21.1253 9.83084 22.0462 7.44751 22.0462C6.33709 22.0462 5.41626 22.9399 5.41626 24.0774C5.41626 25.1878 6.33709 26.1087 7.44751 26.1087Z" fill="white"/>
</svg>
